<?xml version="1.0" encoding="utf-8"?>
<!-- Generator: Adobe Illustrator 12.0.1, SVG Export Plug-In . SVG Version: 6.00 Build 51448)  -->
<!DOCTYPE svg PUBLIC "-//W3C//DTD SVG 1.1//EN" "http://www.w3.org/Graphics/SVG/1.1/DTD/svg11.dtd" [
	<!ENTITY ns_svg "http://www.w3.org/2000/svg">
	<!ENTITY ns_xlink "http://www.w3.org/1999/xlink">
]>
<svg  version="1.1" id="レイヤー_1" xmlns="&ns_svg;" xmlns:xlink="&ns_xlink;" width="513" height="513.001"
	 viewBox="0 0 513 513.001" overflow="visible" enable-background="new 0 0 513 513.001" xml:space="preserve">
<circle fill="#FFFFFF" stroke="#000000" stroke-width="25" cx="256.5" cy="256.5" r="217.6"/>
<g>
	<path d="M379.651,116.249v191.103c0,31.199-26.399,51-54.9,51c-13.8,0-27.9-7.5-27.9-22.2c0-21.3,27.3-41.401,51.9-41.401
		c6.9,0,14.4,1.501,18.9,3.9V162.75l-151.502,33v150.002c0,31.199-26.4,51-54.9,51c-13.8,0-27.9-7.5-27.9-22.2
		c0-21.3,27.301-41.401,51.9-41.401c6.9,0,14.4,1.501,18.9,3.9V154.649L379.651,116.249z"/>
</g>
</svg>
