<?xml version="1.0" encoding="utf-8"?>
<!-- Generator: Adobe Illustrator 12.0.1, SVG Export Plug-In . SVG Version: 6.00 Build 51448)  -->
<!DOCTYPE svg PUBLIC "-//W3C//DTD SVG 1.1//EN" "http://www.w3.org/Graphics/SVG/1.1/DTD/svg11.dtd" [
	<!ENTITY ns_svg "http://www.w3.org/2000/svg">
	<!ENTITY ns_xlink "http://www.w3.org/1999/xlink">
]>
<svg  version="1.1" xmlns="&ns_svg;" xmlns:xlink="&ns_xlink;" width="23.394" height="23.394" viewBox="0 0 23.394 23.394"
	 overflow="visible" enable-background="new 0 0 23.394 23.394" xml:space="preserve">
<g id="main">
	<g>
		<g>
			<path fill="#666666" d="M18.801,18.3l-7.666-7.666c2.303-2.574,2.139-6.513-0.371-8.886C8.255-0.625,4.313-0.57,1.872,1.872
				s-2.497,6.384-0.124,8.893s6.312,2.673,8.886,0.371l7.666,7.666c0.139,0.139,0.362,0.139,0.501,0S18.939,18.438,18.801,18.3z
				 M6.381,12.051c-3.131,0-5.669-2.539-5.669-5.669S3.25,0.712,6.381,0.712c3.131,0,5.669,2.539,5.669,5.669
				S9.513,12.051,6.381,12.051z"/>
		</g>
	</g>
</g>
<g id="_x30_" display="none">
	
		<line fill="none" stroke="#000000" stroke-width="0.0071" stroke-linecap="round" stroke-linejoin="round" stroke-miterlimit="500" x1="6.381" y1="6.381" x2="20.555" y2="20.555"/>
	
		<circle fill="none" stroke="#000000" stroke-width="0.0071" stroke-linecap="round" stroke-linejoin="round" stroke-miterlimit="500" cx="6.382" cy="6.381" r="6.378"/>
	
		<line fill="none" stroke="#000000" stroke-width="0.0071" stroke-linecap="round" stroke-linejoin="round" stroke-miterlimit="500" x1="6.632" y1="6.131" x2="20.806" y2="20.304"/>
	
		<line fill="none" stroke="#000000" stroke-width="0.0071" stroke-linecap="round" stroke-linejoin="round" stroke-miterlimit="500" x1="6.131" y1="6.632" x2="20.304" y2="20.805"/>
	
		<circle fill="none" stroke="#000000" stroke-width="0.0071" stroke-linecap="round" stroke-linejoin="round" stroke-miterlimit="500" cx="20.555" cy="20.555" r="2.835"/>
	
		<circle fill="none" stroke="#000000" stroke-width="0.0071" stroke-linecap="round" stroke-linejoin="round" stroke-miterlimit="500" cx="18.55" cy="18.55" r="0.354"/>
	
		<line fill="none" stroke="#000000" stroke-width="0.0071" stroke-linecap="round" stroke-linejoin="round" stroke-miterlimit="500" x1="0.014" y1="0.515" x2="4.076" y2="2.925"/>
</g>
</svg>
