<?xml version="1.0" encoding="utf-8"?>
<!DOCTYPE svg PUBLIC "-//W3C//DTD SVG 1.1//EN" "http://www.w3.org/Graphics/SVG/1.1/DTD/svg11.dtd" [
	<!ENTITY ns_svg "http://www.w3.org/2000/svg">
	<!ENTITY ns_xlink "http://www.w3.org/1999/xlink">
]>
<svg  version="1.1" id="_x30_" xmlns="&ns_svg;" xmlns:xlink="&ns_xlink;" width="28.354" height="28.354"
	 viewBox="0 0 28.354 28.354" overflow="visible" enable-background="new 0 0 28.354 28.354" xml:space="preserve">
<g>
	<g>
		<path fill="#BFBFBF" d="M14.176,0.57C6.662,0.57,0.57,6.662,0.57,14.177s6.091,13.606,13.606,13.606s13.606-6.092,13.606-13.606
			S21.691,0.57,14.176,0.57z M14.176,18.542c-2.411,0-4.365-1.954-4.365-4.365s1.955-4.365,4.365-4.365
			c2.411,0,4.365,1.954,4.365,4.365S16.587,18.542,14.176,18.542z"/>
	</g>
</g>
<g>
	<g opacity="0.5">
		<path fill="#BFBFBF" d="M14.176,9.812c-2.411,0-4.365,1.954-4.365,4.365s1.955,4.365,4.365,4.365c2.411,0,4.365-1.954,4.365-4.365
			S16.587,9.812,14.176,9.812z M14.176,15.877c-0.939,0-1.701-0.761-1.701-1.701s0.762-1.701,1.701-1.701
			c0.939,0,1.701,0.761,1.701,1.701S15.116,15.877,14.176,15.877z"/>
	</g>
</g>
</svg>

